# xmcd CD database file
#
# Track frame offsets:
#	150
#	16548
#	30105
#	44852
#	54644
#	69623
#	80793
#	96059
#	111113
#	126539
#	140835
#	155011
#	167237
#	182477
#	194712
#	204005
#	219013
#	233059
#	245400
#	259198
#	271859
#	285224
#	298797
#	310597
#
# Disc length: 4343 seconds
#
# Revision: 0
# Processed by: cddbd v1.5.1PL2 Copyright (c) Steve Scherf et al.
# Submitted via: CDex 1.51
#
DISCID=5910f518
DTITLE=Artie Shaw - A Collection
DYEAR=1900
DGENRE=Jazz
TTITLE0=Stardust
TTITLE1=Begin The Beguine
TTITLE2=Solid Sam
TTITLE3=Dueces Wild
TTITLE4=Who's Excited
TTITLE5=The Japanese Sandman
TTITLE6=Sugar Foot Stomp
TTITLE7=Just Kiddin' Around
TTITLE8=Needlenose
TTITLE9=What Is There To Say?
TTITLE10=Thou Swell
TTITLE11=Carnival
TTITLE12=King For A Day
TTITLE13=The Skeleton In The Closet
TTITLE14=No Regrets
TTITLE15=Confessin' (That I Love You)
TTITLE16=Chantez Les Bas (Sing 'em Low)
TTITLE17=Beyond The Blue Horizon
TTITLE18=Love Me A Little Little
TTITLE19=One, Two Button Your Shoe
TTITLE20=St James Infirmary Blues
TTITLE21=I Used To Be Above Love
TTITLE22=Whistle While You Work
TTITLE23=Laura
EXTD=
EXTT0=
EXTT1=
EXTT2=
EXTT3=
EXTT4=
EXTT5=
EXTT6=
EXTT7=
EXTT8=
EXTT9=
EXTT10=
EXTT11=
EXTT12=
EXTT13=
EXTT14=
EXTT15=
EXTT16=
EXTT17=
EXTT18=
EXTT19=
EXTT20=
EXTT21=
EXTT22=
EXTT23=
PLAYORDER=
